<?xml version="1.0" standalone="no"?>
<!DOCTYPE svg PUBLIC "-//W3C//DTD SVG 20010904//EN"
 "http://www.w3.org/TR/2001/REC-SVG-20010904/DTD/svg10.dtd">
<svg version="1.0" xmlns="http://www.w3.org/2000/svg"
 width="700.000000pt" height="700.000000pt" viewBox="0 0 700.000000 700.000000"
 preserveAspectRatio="xMidYMid meet">
<metadata>
Created by potrace 1.11, written by Peter Selinger 2001-2013
</metadata>
<g transform="translate(0.000000,700.000000) scale(0.100000,-0.100000)"
fill="#000000" stroke="none">
<path d="M1712 6980 c-76 -18 -200 -74 -242 -110 -147 -122 -232 -264 -258
-431 -10 -65 -8 -4403 2 -4474 33 -233 61 -351 118 -510 166 -459 473 -842
892 -1114 211 -137 546 -269 776 -305 19 -3 49 -8 65 -11 100 -16 168 -19 420
-20 247 0 372 5 440 19 11 2 40 7 65 11 65 11 67 11 160 35 251 64 512 186
730 343 395 283 691 699 824 1155 19 65 37 131 40 147 4 17 9 41 12 55 37 178
37 185 38 2113 1 1455 -1 1882 -11 1930 -31 155 -119 296 -243 392 -203 155
-474 180 -701 63 -171 -89 -292 -245 -341 -443 -8 -35 -12 -167 -13 -447 0
-219 -1 -398 -3 -398 -1 0 -28 17 -60 39 -123 83 -212 113 -358 117 -109 4
-225 -20 -309 -63 -85 -44 -188 -132 -238 -204 l-17 -23 -17 24 c-64 94 -211
199 -333 240 -82 27 -247 35 -338 15 -74 -16 -191 -71 -246 -114 -21 -17 -42
-31 -45 -31 -3 0 -6 323 -6 718 -1 553 -4 732 -14 782 -27 132 -116 278 -229
372 -54 45 -184 110 -257 128 -81 20 -220 20 -303 0z m270 -220 c75 -23 157
-74 206 -129 47 -52 92 -148 101 -217 5 -32 8 -751 8 -1596 l0 -1538 -253 -1
c-140 -1 -257 -2 -261 -3 -5 -1 -28 -6 -53 -10 -74 -14 -151 -46 -225 -95 -38
-25 -73 -47 -76 -49 -10 -4 -7 3267 3 3312 52 244 314 399 550 326z m3295
-660 c138 -48 235 -149 284 -295 11 -33 13 -369 14 -1885 0 -1015 -3 -1876 -7
-1915 -18 -174 -41 -281 -93 -441 -212 -643 -767 -1147 -1425 -1294 -107 -24
-132 -28 -200 -36 -30 -3 -71 -7 -90 -9 -48 -6 -489 -6 -520 -1 -14 2 -52 7
-85 10 -173 17 -381 75 -563 155 -478 212 -862 620 -1045 1111 -34 91 -72 221
-83 285 -2 17 -7 37 -9 45 -2 8 -7 38 -11 65 -3 28 -8 59 -11 70 -10 39 -11
704 -2 747 38 171 173 303 351 344 34 8 1190 7 1237 -1 23 -4 41 -12 42 -18 5
-66 -4 -164 -17 -177 -12 -12 -55 -15 -255 -16 -254 0 -259 -1 -273 -50 -4
-13 1 -28 14 -42 20 -22 26 -22 286 -22 296 0 314 3 340 65 8 20 14 68 14 115
0 44 4 80 9 80 15 0 101 -81 131 -124 16 -24 38 -70 49 -104 78 -231 -42 -475
-274 -557 -44 -16 -93 -18 -382 -20 -288 -2 -336 -5 -358 -19 -73 -48 -62
-159 18 -190 36 -14 569 -15 667 -2 142 20 306 109 407 221 l58 64 42 -50
c100 -119 257 -211 401 -236 43 -7 176 -7 212 0 206 41 377 163 470 339 17 31
41 83 53 115 l22 58 5 1650 5 1650 23 54 c96 226 331 338 549 261z m-2212
-1194 c150 -40 271 -161 310 -311 13 -51 15 -162 15 -768 l0 -709 -47 35 c-70
51 -145 86 -231 108 -67 18 -112 20 -337 21 l-260 2 1 625 c1 344 4 640 7 657
27 131 109 240 228 304 92 49 214 63 314 36z m1125 -9 c133 -47 235 -156 276
-292 17 -56 18 -127 18 -1055 0 -940 -1 -998 -18 -1050 -48 -142 -146 -244
-282 -290 -76 -26 -218 -22 -294 8 -112 45 -207 139 -252 249 l-23 58 -2 1011
c-3 1093 -5 1052 49 1159 47 90 188 198 288 218 58 12 186 3 240 -16z"/>
<path d="M1657 5452 c-19 -21 -22 -49 -7 -72 8 -13 42 -15 207 -15 l197 0 15
26 c13 24 13 29 -2 53 l-17 26 -189 0 c-169 0 -190 -2 -204 -18z"/>
<path d="M1662 4034 c-25 -17 -29 -51 -8 -79 12 -17 30 -19 189 -20 97 0 185
3 196 7 30 11 44 43 30 71 -7 12 -16 25 -21 28 -5 3 -89 7 -187 7 -145 1 -181
-1 -199 -14z"/>
<path d="M4950 4806 c-45 -20 -33 -90 17 -100 16 -3 102 -5 192 -4 145 1 166
3 183 20 24 24 23 50 -2 73 -18 16 -40 19 -195 19 -96 1 -184 -3 -195 -8z"/>
<path d="M4937 3372 c-21 -23 -21 -41 -1 -70 15 -21 20 -22 197 -22 149 0 187
3 205 16 26 18 28 41 6 72 -15 21 -20 22 -203 22 -169 0 -190 -2 -204 -18z"/>
<path d="M2749 3589 c-14 -14 -18 -27 -14 -42 13 -44 29 -47 220 -47 164 0
184 2 198 18 22 24 21 55 -1 75 -16 15 -45 17 -200 17 -170 0 -183 -1 -203
-21z"/>
<path d="M3848 3599 c-22 -13 -24 -62 -2 -83 13 -13 45 -16 198 -16 130 0 187
4 199 13 26 18 29 55 7 77 -18 18 -35 20 -202 20 -106 0 -190 -5 -200 -11z"/>
<path d="M3761 2947 c-16 -4 -31 -14 -34 -22 -8 -18 0 -56 13 -69 7 -7 96 -11
252 -12 296 -2 276 9 273 -156 -1 -76 -7 -125 -18 -150 -30 -71 -110 -127
-184 -130 -44 -2 -75 -31 -68 -65 4 -27 19 -42 45 -44 144 -11 283 93 324 241
19 73 19 313 -1 352 -29 59 -40 61 -318 62 -140 1 -268 -2 -284 -7z"/>
</g>
</svg>
