<svg xmlns="http://www.w3.org/2000/svg" viewBox="-320 198.28 200 200"><path d="M-160.624 335.781c0 31.016-25.235 56.25-56.25 56.25h-6.25c-31.016 0-56.25-25.235-56.25-56.25v-12.5c0-6.875 5.625-12.5 12.5-12.5h31.25c1.084 0 2.122.184 3.125.444v4.244c0 .862-.7 1.563-1.563 1.563h-12.5a1.564 1.564 0 000 3.126h14.062c1.725 0 3.125-1.4 3.125-3.125v-4.509c3.562 2.075 5.994 5.828 6.194 10.19.309 7.156-5.347 13.069-12.434 13.069h-15.625a3.126 3.126 0 000 6.25h14.838c6.669 0 12.769-3.35 16.319-8.503 3.581 5.397 9.791 8.503 15.709 8.503 10.338 0 18.75-8.412 18.75-18.75v-87.5c0-6.894 5.606-12.5 12.5-12.5s12.5 5.606 12.5 12.5v99.998zm-118.75-118.751c0-6.894 5.606-12.5 12.5-12.5s12.5 5.606 12.5 12.5v87.5h-12.501c-4.797 0-9.175 1.84-12.5 4.835l.001-92.335zm31.25 53.126c0-6.875 5.625-12.5 12.5-12.5s12.5 5.625 12.5 12.5v39.178c-3.319-2.975-7.69-4.803-12.5-4.803h-12.5v-34.375zm31.25 0c0-6.875 5.625-12.5 12.5-12.5s12.5 5.625 12.5 12.5v53.125c0 6.903-5.597 12.5-12.5 12.5-6.175 0-12.5-5.003-12.5-12.5v-53.125zm43.749-53.126c-10.356 0-18.75 8.394-18.75 18.75v20.46c-3.325-2.994-7.703-4.835-12.5-4.835-6.506 0-12.26 3.362-15.625 8.431-3.366-5.069-9.119-8.431-15.625-8.431-4.797 0-9.175 1.84-12.5 4.835v-39.21c0-10.356-8.394-18.75-18.75-18.75-10.313 0-18.75 8.437-18.75 18.75v118.75c0 34.375 28.125 62.5 62.5 62.5h6.25c34.375 0 62.5-28.125 62.5-62.5v-100c.001-10.312-8.437-18.75-18.75-18.75zm-26.562 100.001c.862 0 1.563.7 1.563 1.563v4.688a6.248 6.248 0 01-6.25 6.25 1.564 1.564 0 000 3.126 9.375 9.375 0 009.375-9.375v-6.25c0-1.725-1.4-3.125-3.125-3.125h-14.062a1.564 1.564 0 000 3.126h12.499v-.003zm-60.937-32.813c0-.862-.7-1.563-1.563-1.563h-9.375a1.564 1.564 0 000 3.126h9.375c.863 0 1.563-.7 1.563-1.563zm31.249 12.5c0-.862-.7-1.563-1.563-1.563h-9.375a1.564 1.564 0 000 3.126h9.375c.863 0 1.563-.7 1.563-1.563zm20.313 1.563h9.375a1.564 1.564 0 000-3.126h-9.375a1.564 1.564 0 000 3.126zm40.625 3.125h-9.375a1.564 1.564 0 000 3.126h9.375a1.564 1.564 0 000-3.126zm0-40.626h-9.375a1.564 1.564 0 000 3.126h9.375a1.564 1.564 0 000-3.126zm-103.125-15.625h9.375a1.564 1.564 0 000-3.126h-9.375a1.564 1.564 0 000 3.126z"/></svg>